<?xml version="1.0" encoding="UTF-8" standalone="no"?>
<!-- Uploaded to: SVG Repo, www.svgrepo.com, Generator: SVG Repo Mixer Tools -->

<svg
   width="800px"
   height="800px"
   viewBox="0 0 24 24"
   fill="none"
   version="1.1"
   id="svg1"
   sodipodi:docname="theme-dark-moon.svg"
   inkscape:version="1.3 (0e150ed6c4, 2023-07-21)"
   xmlns:inkscape="http://www.inkscape.org/namespaces/inkscape"
   xmlns:sodipodi="http://sodipodi.sourceforge.net/DTD/sodipodi-0.dtd"
   xmlns="http://www.w3.org/2000/svg"
   xmlns:svg="http://www.w3.org/2000/svg">
  <defs
     id="defs1" />
  <sodipodi:namedview
     id="namedview1"
     pagecolor="#505050"
     bordercolor="#ffffff"
     borderopacity="1"
     inkscape:showpageshadow="0"
     inkscape:pageopacity="0"
     inkscape:pagecheckerboard="1"
     inkscape:deskcolor="#d1d1d1"
     inkscape:zoom="0.77875"
     inkscape:cx="400"
     inkscape:cy="400"
     inkscape:current-layer="svg1" />
  <path
     d="M21.5287 15.9294C21.3687 15.6594 20.9187 15.2394 19.7987 15.4394C19.1787 15.5494 18.5487 15.5994 17.9187 15.5694C15.5887 15.4694 13.4787 14.3994 12.0087 12.7494C10.7087 11.2994 9.90873 9.40938 9.89873 7.36938C9.89873 6.22938 10.1187 5.12938 10.5687 4.08938C11.0087 3.07938 10.6987 2.54938 10.4787 2.32938C10.2487 2.09938 9.70873 1.77938 8.64873 2.21938C4.55873 3.93938 2.02873 8.03938 2.32873 12.4294C2.62873 16.5594 5.52873 20.0894 9.36873 21.4194C10.2887 21.7394 11.2587 21.9294 12.2587 21.9694C12.4187 21.9794 12.5787 21.9894 12.7387 21.9894C16.0887 21.9894 19.2287 20.4094 21.2087 17.7194C21.8787 16.7894 21.6987 16.1994 21.5287 15.9294Z"
     fill="#292D32"
     id="path1"
     style="fill:#2c4159;fill-opacity:1" />
</svg>
